<svg viewBox="0 0 32 32" fill="none" xmlns="http://www.w3.org/2000/svg">
  <path
    d="M5.997 23S3 26.442 3 28.194C3 29.746 4.343 31 5.997 31 7.657 31 9 29.746 9 28.194 9 26.436 5.997 23 5.997 23m10.006 0S13 26.442 13 28.194C13 29.746 14.343 31 16.003 31 17.657 31 19 29.746 19 28.194 19 26.436 16.003 23 16.003 23m10 0S23 26.442 23 28.195C23 29.745 24.347 31 26.003 31 27.658 31 29 29.746 29 28.195 29 26.436 26.003 23 26.003 23"
    fill="#84C4FF"
  />
  <path
    d="M21 3a4.997 4.997 0 0 1 5 5q0 .519-.096 1H26a6 6 0 0 1 6 6c0 3.313-2.688 6-6.001 6H5.996A6 6 0 0 1 0 15c0-2.656 1.734-4.887 4.129-5.675A6.996 6.996 0 0 1 10.999 1c2.7 0 5.025 1.556 6.188 3.8C18.104 3.706 19.459 3 21 3"
    fill="url(#a)"
  />
  <defs>
    <linearGradient id="a" x1="20.902" y1="21" x2="8.3" y2="2.508" gradientUnits="userSpaceOnUse">
      <stop stop-color="#77C8FF" />
      <stop offset="1" stop-color="#A9DEFF" />
    </linearGradient>
  </defs>
</svg>