<svg width="21" height="15" viewBox="0 0 21 15" fill="none" xmlns="http://www.w3.org/2000/svg">
<path d="M16.5301 14.165C18.6701 14.165 20.4301 12.337 20.4301 10.165C20.4349 9.29944 20.1587 8.45568 19.643 7.76053C19.1273 7.06537 18.3998 6.55637 17.57 6.31C17.5574 5.80508 17.4177 5.31149 17.1637 4.87488C16.9098 4.43827 16.55 4.07274 16.1174 3.81207C15.6847 3.5514 15.1933 3.40402 14.6886 3.38356C14.184 3.3631 13.6823 3.47021 13.23 3.695C12.8711 2.84601 12.2699 2.12164 11.5015 1.61243C10.7332 1.10323 9.83184 0.831774 8.91008 0.832001C6.79008 0.832001 5.0101 2.238 4.4301 4.166C3.20925 4.30791 2.08352 4.89478 1.26811 5.81441C0.452708 6.73405 0.00478738 7.92194 0.0100557 9.151C0.0100557 11.857 2.09 14.165 4.83 14.165H16.5301Z" fill="url(#paint0_linear_1_443)"/>
<defs>
<linearGradient id="paint0_linear_1_443" x1="25790.9" y1="171.921" x2="25919" y2="472.721" gradientUnits="userSpaceOnUse">
<stop stop-color="#D3E5EC"/>
<stop offset="1" stop-color="#B1D1E0"/>
</linearGradient>
</defs>
</svg>
