<svg width="24" height="23" viewBox="0 0 24 23" fill="none" xmlns="http://www.w3.org/2000/svg">
<path d="M21.41 10.667C22.1176 10.59 22.7718 10.2549 23.2478 9.7258C23.7238 9.19669 23.988 8.51069 23.99 7.799C23.99 6.447 23.0501 5.275 21.8101 5.021C21.4701 2.203 19.13 0 16.29 0C14.29 0 12.5401 1.069 11.5601 2.69C11.5301 2.689 11.51 2.682 11.49 2.682C9.37999 2.682 7.67004 4.514 7.67004 6.674C7.67004 8.758 9.26002 10.51 11.27 10.666H21.41V10.667Z" fill="url(#paint0_linear_15_9)"/>
<path d="M21.41 10.667C22.1176 10.59 22.7718 10.2549 23.2478 9.7258C23.7238 9.19669 23.988 8.51069 23.99 7.799C23.99 6.447 23.0501 5.275 21.8101 5.021C21.4701 2.203 19.13 0 16.29 0C14.29 0 12.5401 1.069 11.5601 2.69C11.5301 2.689 11.51 2.682 11.49 2.682C9.37999 2.682 7.67004 4.514 7.67004 6.674C7.67004 8.758 9.26002 10.51 11.27 10.666H21.41V10.667Z" fill="url(#paint1_linear_15_9)" fill-opacity="0.2"/>
<path d="M16.5301 17.165C18.6701 17.165 20.4301 15.337 20.4301 13.165C20.4349 12.2994 20.1587 11.4557 19.643 10.7605C19.1273 10.0654 18.3998 9.55637 17.57 9.31C17.5574 8.80508 17.4177 8.31149 17.1637 7.87488C16.9098 7.43827 16.55 7.07274 16.1174 6.81207C15.6847 6.5514 15.1933 6.40402 14.6886 6.38356C14.184 6.3631 13.6823 6.47021 13.23 6.695C12.8711 5.84601 12.2699 5.12164 11.5015 4.61243C10.7332 4.10323 9.83184 3.83177 8.91008 3.832C6.79008 3.832 5.0101 5.238 4.4301 7.166C3.20925 7.30791 2.08352 7.89478 1.26811 8.81441C0.452708 9.73405 0.00478738 10.9219 0.0100557 12.151C0.0100557 14.857 2.09 17.165 4.83 17.165H16.5301Z" fill="url(#paint2_linear_15_9)"/>
<path d="M6.50002 18C6.50002 18 5 19.921 5 20.8947C5 21.7631 5.68423 22.4474 6.50002 22.4474C7.34212 22.4474 8 21.7368 8 20.8947C8 19.921 6.50002 18 6.50002 18Z" fill="#84C4FF"/>
<path d="M14.5 18C14.5 18 13 19.921 13 20.8947C13 21.7631 13.6842 22.4474 14.5 22.4474C15.3421 22.4474 16 21.7368 16 20.8947C16 19.921 14.5 18 14.5 18Z" fill="#84C4FF"/>
<path d="M10.5 18C10.5 18 9 19.921 9 20.8947C9 21.7631 9.68423 22.4474 10.5 22.4474C11.3421 22.4474 12 21.7368 12 20.8947C12 19.921 10.5 18 10.5 18Z" fill="#84C4FF"/>
<defs>
<linearGradient id="paint0_linear_15_9" x1="21299.8" y1="53.3353" x2="21382" y2="245.78" gradientUnits="userSpaceOnUse">
<stop stop-color="#C8DDE6"/>
<stop offset="1" stop-color="#9EC0D0"/>
</linearGradient>
<linearGradient id="paint1_linear_15_9" x1="21433" y1="53.335" x2="21433" y2="167.12" gradientUnits="userSpaceOnUse">
<stop stop-opacity="0"/>
<stop offset="1" stop-opacity="0.3"/>
</linearGradient>
<linearGradient id="paint2_linear_15_9" x1="25790.9" y1="174.921" x2="25919" y2="475.721" gradientUnits="userSpaceOnUse">
<stop stop-color="#D3E5EC"/>
<stop offset="1" stop-color="#B1D1E0"/>
</linearGradient>
</defs>
</svg>
